<svg width="831" height="365" viewBox="0 0 831 365" fill="none" xmlns="http://www.w3.org/2000/svg">
<line x1="15" y1="349.954" x2="27" y2="349.954" stroke="#333333" stroke-width="8" stroke-linecap="round"/>
<line x1="45" y1="349.954" x2="97" y2="349.954" stroke="#333333" stroke-width="8" stroke-linecap="round"/>
<line x1="115" y1="349.954" x2="237" y2="349.954" stroke="#333333" stroke-width="8" stroke-linecap="round"/>
<line x1="255" y1="349.954" x2="607" y2="349.954" stroke="#333333" stroke-width="8" stroke-linecap="round"/>
<line x1="625" y1="349.954" x2="747" y2="349.954" stroke="#333333" stroke-width="8" stroke-linecap="round"/>
<line x1="765" y1="349.954" x2="817" y2="349.954" stroke="#333333" stroke-width="8" stroke-linecap="round"/>
<path d="M126.435 147.208C126.432 155.319 137.886 161.062 144.891 163.083C146.018 163.426 178.616 162.535 180.924 162.754C183.09 162.96 204.512 151.829 201.966 144.191C199.716 137.442 188.786 143.923 185.653 145.878C186.675 140.685 191.843 128.444 184.534 127.882C177.225 127.319 174.35 143.13 173.281 139.691C172.212 136.253 169.985 125.832 165.411 125.07C160.35 124.227 159.753 134.965 157.535 140.254C155.835 137.747 149.701 128.974 144.041 129.569C138.688 130.131 142.373 142.287 143.475 148.69C138.506 145.329 126.438 139.129 126.435 147.208Z" fill="#F41C21"/>
<path opacity="0.3" fill-rule="evenodd" clip-rule="evenodd" d="M174.891 162.755C178.077 162.713 180.374 162.701 180.927 162.754C183.094 162.96 204.515 151.829 201.969 144.191C200.969 141.19 198.253 140.805 195.269 141.474C193.737 145.086 191.674 148.525 189.061 151.699C185.061 156.556 180.229 160.236 174.891 162.755Z" fill="#4A0B10"/>
<path d="M146.039 155.247C146.037 159.189 151.604 161.98 155.009 162.963C155.557 163.129 171.4 162.696 172.521 162.803C173.574 162.903 183.985 157.493 182.748 153.781C181.655 150.501 176.342 153.651 174.82 154.601C175.317 152.077 177.828 146.128 174.276 145.855C170.724 145.581 169.326 153.265 168.807 151.594C168.287 149.923 167.205 144.859 164.982 144.488C162.522 144.078 162.232 149.297 161.154 151.868C160.328 150.649 157.346 146.386 154.596 146.675C151.994 146.948 153.785 152.856 154.321 155.967C151.906 154.334 146.04 151.321 146.039 155.247Z" fill="#A51F28"/>
<path opacity="0.3" fill-rule="evenodd" clip-rule="evenodd" d="M163.81 162.901C164.066 162.896 164.323 162.892 164.579 162.887C168.393 162.819 172.007 162.754 172.522 162.803C173.574 162.903 183.986 157.493 182.748 153.781C182.001 151.54 179.285 152.3 177.153 153.31C177.137 153.341 177.121 153.372 177.105 153.402C174.428 158.517 169.584 161.725 163.81 162.901Z" fill="#4A0B10"/>
<path d="M267 254.71C267 306.901 221.557 346.266 165.5 346.266C109.443 346.266 64 306.901 64 254.71C64 202.52 109.443 161.766 165.5 161.766C221.557 161.766 267 202.52 267 254.71Z" fill="#4A7856"/>
<path opacity="0.3" fill-rule="evenodd" clip-rule="evenodd" d="M187.078 344.266C216.959 326.962 237.001 294.737 237.001 256.226C237.001 214.149 213.075 178.762 178.529 162.51C228.432 168.256 267 206.63 267 254.71C267 300.007 232.769 335.642 187.078 344.266Z" fill="#0C412F"/>
<path fill-rule="evenodd" clip-rule="evenodd" d="M232 254.181C232 281.36 228.628 304.602 218.705 320.987C212.127 331.848 202.55 339.884 188.659 343.956C194.814 342.703 200.755 340.958 206.423 338.763C228.639 322.941 235 291.736 235 254.181C235 218.226 229.169 187.459 209.176 170.642C205.16 168.91 200.998 167.411 196.712 166.164C206.354 170.787 213.464 177.811 218.691 186.625C228.63 203.384 232 227.006 232 254.181ZM134.288 166.164C124.646 170.787 117.536 177.811 112.309 186.625C102.37 203.384 99 227.006 99 254.181C99 281.36 102.372 304.602 112.295 320.987C118.873 331.848 128.45 339.884 142.341 343.956C136.186 342.703 130.245 340.958 124.577 338.763C102.361 322.941 96 291.736 96 254.181C96 218.226 101.831 187.459 121.824 170.642C125.84 168.91 130.002 167.411 134.288 166.164Z" fill="#195742"/>
<path fill-rule="evenodd" clip-rule="evenodd" d="M192 254.211C192 282.639 190.791 307.255 186.594 324.703C184.495 333.433 181.711 340.08 178.185 344.492C177.849 344.912 177.507 345.311 177.158 345.691C178.588 345.549 180.009 345.381 181.42 345.187C192.435 329.841 195 295.756 195 254.211C195 213.509 192.538 179.192 182.08 162.976C180.738 162.778 179.387 162.603 178.028 162.453C178.072 162.508 178.115 162.564 178.159 162.62C181.699 167.178 184.489 174.022 186.591 182.949C190.791 200.783 192 225.786 192 254.211ZM152.972 162.453C152.928 162.508 152.885 162.564 152.841 162.62C149.301 167.178 146.511 174.022 144.409 182.949C140.209 200.783 139 225.786 139 254.211C139 282.639 140.209 307.255 144.406 324.703C146.505 333.433 149.289 340.08 152.815 344.492C153.151 344.912 153.493 345.311 153.842 345.691C152.412 345.549 150.991 345.381 149.58 345.187C138.565 329.841 136 295.756 136 254.211C136 213.509 138.462 179.192 148.92 162.976C150.262 162.778 151.613 162.603 152.972 162.453Z" fill="#195742"/>
<ellipse cx="165.803" cy="185.266" rx="3" ry="3.5" transform="rotate(15 165.803 185.266)" fill="#FAF0E6"/>
<ellipse cx="196.562" cy="179.733" rx="3" ry="3.5" transform="rotate(-10 196.562 179.733)" fill="#FAF0E6"/>
<ellipse cx="236.562" cy="201.733" rx="3" ry="3.5" transform="rotate(-21 236.562 201.733)" fill="#FAF0E6"/>
<ellipse cx="248.055" cy="230.108" rx="3" ry="3.5" transform="rotate(-21 248.055 230.108)" fill="#FAF0E6"/>
<ellipse cx="253.055" cy="259.108" rx="3" ry="3.5" transform="rotate(-21 253.055 259.108)" fill="#FAF0E6"/>
<ellipse cx="246.055" cy="288.108" rx="3" ry="3.5" transform="rotate(-21 246.055 288.108)" fill="#FAF0E6"/>
<ellipse cx="235.055" cy="309.108" rx="3" ry="3.5" transform="rotate(-21 235.055 309.108)" fill="#FAF0E6"/>
<ellipse cx="208.562" cy="204.733" rx="3" ry="3.5" transform="rotate(-10 208.562 204.733)" fill="#FAF0E6"/>
<ellipse cx="215.562" cy="236.733" rx="3" ry="3.5" transform="rotate(-10 215.562 236.733)" fill="#FAF0E6"/>
<ellipse cx="215.562" cy="265.733" rx="3" ry="3.5" transform="rotate(-10 215.562 265.733)" fill="#FAF0E6"/>
<ellipse cx="211.562" cy="296.733" rx="3" ry="3.5" transform="rotate(-10 211.562 296.733)" fill="#FAF0E6"/>
<ellipse cx="202.562" cy="323.733" rx="3" ry="3.5" transform="rotate(-10 202.562 323.733)" fill="#FAF0E6"/>
<ellipse rx="3" ry="3.5" transform="matrix(-0.984808 -0.173648 -0.173648 0.984808 134.548 179.733)" fill="#FAF0E6"/>
<ellipse rx="3" ry="3.5" transform="matrix(-0.93358 -0.358368 -0.358368 0.93358 94.5485 201.733)" fill="#FAF0E6"/>
<ellipse rx="3" ry="3.5" transform="matrix(-0.93358 -0.358368 -0.358368 0.93358 83.0553 230.108)" fill="#FAF0E6"/>
<ellipse rx="3" ry="3.5" transform="matrix(-0.93358 -0.358368 -0.358368 0.93358 78.0553 259.108)" fill="#FAF0E6"/>
<ellipse rx="3" ry="3.5" transform="matrix(-0.93358 -0.358368 -0.358368 0.93358 85.0553 288.108)" fill="#FAF0E6"/>
<ellipse rx="3" ry="3.5" transform="matrix(-0.93358 -0.358368 -0.358368 0.93358 96.0553 309.108)" fill="#FAF0E6"/>
<ellipse rx="3" ry="3.5" transform="matrix(-0.984808 -0.173648 -0.173648 0.984808 122.548 204.733)" fill="#FAF0E6"/>
<ellipse rx="3" ry="3.5" transform="matrix(-0.984808 -0.173648 -0.173648 0.984808 115.548 236.733)" fill="#FAF0E6"/>
<ellipse rx="3" ry="3.5" transform="matrix(-0.984808 -0.173648 -0.173648 0.984808 115.548 265.733)" fill="#FAF0E6"/>
<ellipse rx="3" ry="3.5" transform="matrix(-0.984808 -0.173648 -0.173648 0.984808 119.548 296.733)" fill="#FAF0E6"/>
<ellipse rx="3" ry="3.5" transform="matrix(-0.984808 -0.173648 -0.173648 0.984808 128.548 323.733)" fill="#FAF0E6"/>
<ellipse cx="165.803" cy="214.58" rx="3" ry="3.5" transform="rotate(15 165.803 214.58)" fill="#FAF0E6"/>
<ellipse cx="165.803" cy="244.894" rx="3" ry="3.5" transform="rotate(15 165.803 244.894)" fill="#FAF0E6"/>
<ellipse cx="165.803" cy="273.209" rx="3" ry="3.5" transform="rotate(15 165.803 273.209)" fill="#FAF0E6"/>
<ellipse cx="165.803" cy="304.523" rx="3" ry="3.5" transform="rotate(15 165.803 304.523)" fill="#FAF0E6"/>
<ellipse cx="165.803" cy="331.838" rx="3" ry="3.5" transform="rotate(15 165.803 331.838)" fill="#FAF0E6"/>
<path d="M497.168 161.849C495.168 191.849 500.668 241.849 407.668 240.849" stroke="#82A446" stroke-width="45" stroke-linecap="round"/>
<path opacity="0.3" fill-rule="evenodd" clip-rule="evenodd" d="M400.932 262.323C446.559 261.509 475.668 248.414 491.401 224.252C499.142 212.363 502.25 199.717 503.713 189.045C504.704 181.81 505.07 173.773 505.341 167.825V167.825C505.438 165.682 505.524 163.811 505.621 162.346C506.282 152.429 500.414 143.585 491.694 140.019C493.914 139.463 496.258 139.238 498.665 139.399C511.064 140.225 520.445 150.947 519.618 163.346C519.521 164.811 519.436 166.682 519.338 168.825V168.825C519.067 174.773 518.702 182.81 517.71 190.045C516.247 200.717 513.14 213.363 505.398 225.252C488.819 250.713 457.388 263.885 407.426 263.348C405.165 263.323 402.984 262.966 400.932 262.323Z" fill="#134E1C"/>
<path d="M309.754 81.849C302.668 141.849 303.168 212.349 388.254 205.849" stroke="#82A446" stroke-width="52" stroke-linecap="round"/>
<path opacity="0.3" fill-rule="evenodd" clip-rule="evenodd" d="M327.794 63.1235C325.936 65.0273 324.668 67.5367 324.332 70.383C320.807 100.23 318.627 135.861 329.85 163.49C335.657 177.789 345.185 190.315 360.003 198.573C374.212 206.492 392.157 209.858 414.127 208.458C414.277 206.958 414.298 205.424 414.179 203.869C413.521 195.262 408.745 187.956 401.929 183.734C393.222 183.513 386.058 182.233 380.152 180.238C365.965 180.583 357.189 177.972 351.754 174.943C345.917 171.69 341.656 166.703 338.529 159.002C331.456 141.59 331.994 115.216 335.575 84.8984C336.566 76.504 333.441 68.5722 327.794 63.1235Z" fill="#134E1C"/>
<path d="M355.749 45.489C355.549 29.4237 366.912 15.5334 382.698 12.5464V12.5464C385.04 12.1033 387.423 11.9144 389.805 11.9829L390.353 11.9987C409.69 12.555 425.553 27.4889 427.274 46.7568L453.805 343.776C453.91 344.946 452.988 345.954 451.813 345.954L447.5 345.954L408.5 345.954L367 345.954L361.475 345.954C360.38 345.954 359.489 345.074 359.475 343.979L355.749 45.489Z" fill="#82A446"/>
<path opacity="0.3" fill-rule="evenodd" clip-rule="evenodd" d="M437.813 345.954H447.5H451.813C452.988 345.954 453.91 344.946 453.806 343.776L427.274 46.7568C425.553 27.4889 409.69 12.555 390.354 11.9987L389.805 11.9829C387.423 11.9144 385.04 12.1033 382.698 12.5464C382.556 12.5733 382.415 12.601 382.273 12.6297C398.843 15.7146 411.733 29.4968 413.274 46.7568L439.806 343.776C439.91 344.946 438.988 345.954 437.813 345.954Z" fill="#134E1C"/>
<path d="M367 99.9542C368.75 108.306 373.417 112.483 374 113.079" stroke="#E7E9B8" stroke-width="4" stroke-linecap="round"/>
<path d="M364 157.995C369.205 164.758 375.222 166.492 376.007 166.776" stroke="#E7E9B8" stroke-width="4" stroke-linecap="round"/>
<path d="M373 331.995C378.205 338.758 384.222 340.492 385.007 340.776" stroke="#E7E9B8" stroke-width="4" stroke-linecap="round"/>
<path d="M376.281 202.954C377.852 211.342 382.428 215.617 382.998 216.226" stroke="#E7E9B8" stroke-width="4" stroke-linecap="round"/>
<path d="M372 294.041C373.853 302.371 378.571 306.489 379.162 307.078" stroke="#E7E9B8" stroke-width="4" stroke-linecap="round"/>
<path d="M478.281 187.954C479.852 196.342 484.428 200.617 484.998 201.226" stroke="#E7E9B8" stroke-width="4" stroke-linecap="round"/>
<path d="M369 253.596C373.773 260.67 379.67 262.776 380.435 263.109" stroke="#E7E9B8" stroke-width="4" stroke-linecap="round"/>
<path d="M334 213.445C341.637 217.252 347.808 216.181 348.637 216.094" stroke="#E7E9B8" stroke-width="4" stroke-linecap="round"/>
<path d="M454.233 225.343C458.094 232.953 463.686 235.772 464.404 236.197" stroke="#E7E9B8" stroke-width="4" stroke-linecap="round"/>
<path d="M288 131.995C293.205 138.758 299.222 140.492 300.007 140.776" stroke="#E7E9B8" stroke-width="4" stroke-linecap="round"/>
<path d="M310 167.652C312.574 175.788 317.633 179.478 318.273 180.014" stroke="#E7E9B8" stroke-width="4" stroke-linecap="round"/>
<path d="M292 74.9952C297.205 81.7579 303.222 83.4919 304.007 83.7758" stroke="#E7E9B8" stroke-width="4" stroke-linecap="round"/>
<path d="M376 48.9542C377.75 57.3065 382.417 61.4826 383 62.0792" stroke="#E7E9B8" stroke-width="4" stroke-linecap="round"/>
<path d="M411 17.9542C409.25 26.3065 404.583 30.4826 404 31.0792" stroke="#E7E9B8" stroke-width="4" stroke-linecap="round"/>
<path d="M407.783 74.9542C408.148 83.4801 404.656 88.6785 404.238 89.4006" stroke="#E7E9B8" stroke-width="4" stroke-linecap="round"/>
<path d="M396.021 134.954C398.775 143.031 396.89 149.003 396.693 149.814" stroke="#E7E9B8" stroke-width="4" stroke-linecap="round"/>
<path d="M407.021 258.954C409.775 267.031 407.89 273.003 407.693 273.814" stroke="#E7E9B8" stroke-width="4" stroke-linecap="round"/>
<path d="M402.224 308.954C407.828 315.39 408.342 321.631 408.466 322.456" stroke="#E7E9B8" stroke-width="4" stroke-linecap="round"/>
<path d="M420.423 165.301C414.893 171.8 408.798 173.237 408 173.482" stroke="#E7E9B8" stroke-width="4" stroke-linecap="round"/>
<path d="M439.664 285.434C436.67 293.425 431.425 296.847 430.758 297.348" stroke="#E7E9B8" stroke-width="4" stroke-linecap="round"/>
<path d="M431.344 232.271C428.054 240.145 422.685 243.369 422 243.845" stroke="#E7E9B8" stroke-width="4" stroke-linecap="round"/>
<path d="M440.054 329.71C433.095 334.65 426.834 334.544 426 334.585" stroke="#E7E9B8" stroke-width="4" stroke-linecap="round"/>
<path d="M417.021 194.954C419.775 203.031 417.89 209.003 417.693 209.814" stroke="#E7E9B8" stroke-width="4" stroke-linecap="round"/>
<path d="M350.183 183.123C344.842 189.778 338.79 191.39 338 191.658" stroke="#E7E9B8" stroke-width="4" stroke-linecap="round"/>
<path d="M497.183 222.123C491.842 228.778 485.79 230.39 485 230.658" stroke="#E7E9B8" stroke-width="4" stroke-linecap="round"/>
<path d="M511.122 155.385C506.581 162.61 500.754 164.906 500 165.263" stroke="#E7E9B8" stroke-width="4" stroke-linecap="round"/>
<path d="M509.977 180.717C508.333 189.091 503.72 193.326 503.145 193.93" stroke="#E7E9B8" stroke-width="4" stroke-linecap="round"/>
<path d="M426.938 112.954C426.317 121.465 422.249 126.226 421.75 126.895" stroke="#E7E9B8" stroke-width="4" stroke-linecap="round"/>
<path d="M324.938 106.954C324.317 115.465 320.249 120.226 319.75 120.895" stroke="#E7E9B8" stroke-width="4" stroke-linecap="round"/>
<path d="M709.525 120.535C709.803 121.647 717.645 144.737 722.422 156.838C720.989 160.023 720.416 164.481 729.587 156.838C741.051 147.285 749.65 123.878 750.127 111.936C750.605 99.9945 743.44 90.9186 722.422 91.874C701.405 92.8293 709.046 118.624 709.525 120.535Z" fill="#4A7856"/>
<path opacity="0.3" fill-rule="evenodd" clip-rule="evenodd" d="M721.82 158.467C721.067 161.169 721.937 163.213 729.587 156.838C741.051 147.285 749.65 123.878 750.127 111.936C750.605 99.9945 743.44 90.9186 722.422 91.874C720.369 91.9673 718.59 92.2975 717.051 92.8193C736.811 92.3977 743.592 101.308 743.127 112.936C742.65 124.878 734.051 148.285 722.587 157.838C722.324 158.058 722.068 158.267 721.82 158.467Z" fill="#195742"/>
<path d="M690.895 212.727C690.131 226.866 682.934 240.273 679.431 245.209C666.852 249.189 649.624 256.769 681.342 255.24C720.989 253.329 753.471 220.369 765.413 204.128C777.355 187.887 761.114 163.048 733.886 154.45C706.659 145.852 691.851 195.052 690.895 212.727Z" fill="#4A7856"/>
<path opacity="0.3" fill-rule="evenodd" clip-rule="evenodd" d="M663.382 252.906C664.663 252.872 666.044 252.821 667.529 252.75C708.267 250.801 741.643 217.192 753.914 200.631C764.735 186.026 753.034 164.601 730.929 153.731C731.898 153.895 732.884 154.133 733.886 154.45C761.114 163.048 777.355 187.887 765.413 204.128C753.471 220.369 720.989 253.329 681.342 255.24C667.011 255.931 662.672 254.762 663.382 252.906Z" fill="#195742"/>
<path d="M580.073 247.119C595.236 230.224 614.625 256.355 623.542 272.436C624.497 281.512 625.548 299.664 622.109 299.664C617.81 299.664 588.171 292.922 578.163 280.557C570.043 270.526 563.355 265.749 580.073 247.119Z" fill="#4A7856"/>
<path opacity="0.3" fill-rule="evenodd" clip-rule="evenodd" d="M586.051 242.644C598.617 242.736 611.679 261.061 618.541 273.436C619.332 280.952 620.189 294.691 618.507 299.193C620.195 299.506 621.45 299.664 622.109 299.664C625.548 299.664 624.497 281.512 623.542 272.436C615.762 258.406 600.011 236.726 586.051 242.644Z" fill="#195742"/>
<path d="M566.221 168.302C574.341 175.945 601.25 189.639 616.377 195.052C618.288 195.052 621.44 194.288 618.765 191.231C615.421 187.41 611.368 157.189 610.167 151.584C608.734 144.896 602.524 130.566 592.493 122.923C582.461 115.28 566.221 128.655 557.145 139.642C548.069 150.628 561.003 163.392 566.221 168.302Z" fill="#4A7856"/>
<path opacity="0.3" fill-rule="evenodd" clip-rule="evenodd" d="M614.936 194.525C615.913 193.994 616.307 192.993 614.765 191.231C612.24 188.345 609.31 170.403 607.509 159.377C606.926 155.803 606.461 152.956 606.167 151.584C604.734 144.896 598.524 130.566 588.493 122.923C586.983 121.773 585.332 121.099 583.587 120.821C586.821 120.363 589.869 120.924 592.493 122.923C602.524 130.566 608.734 144.896 610.167 151.584C610.461 152.956 610.926 155.803 611.509 159.377C613.31 170.403 616.24 188.345 618.765 191.231C621.44 194.288 618.288 195.053 616.377 195.053C615.908 194.885 615.427 194.709 614.936 194.525Z" fill="#195742"/>
<path d="M649.39 161.085L649.814 162.093C653.635 163.048 661.947 164.959 664.622 164.959C667.966 164.959 685.715 132.805 686.595 131.044C687.55 129.133 700.448 99.5168 696.627 82.3203C692.805 65.1239 679.908 59.3918 648.858 59.8694C617.809 60.3471 629.332 109.652 630.707 114.325C633.044 122.267 642.995 145.9 649.39 161.085Z" fill="#4A7856"/>
<path opacity="0.3" fill-rule="evenodd" clip-rule="evenodd" d="M656.437 163.629C662.055 157.545 675.821 132.59 676.593 131.044C677.548 129.133 690.446 99.5168 686.625 82.3203C683.184 66.8362 672.384 60.647 647.601 59.9166C648.012 59.8918 648.431 59.876 648.858 59.8694C679.907 59.3918 692.805 65.1239 696.626 82.3203C700.448 99.5168 687.55 129.133 686.595 131.044C685.715 132.805 667.966 164.959 664.622 164.959C663.099 164.959 659.747 164.339 656.437 163.629Z" fill="#195742"/>
<path d="M685.163 241.865C685.163 288.824 660.324 346.954 646.471 346.954C632.141 346.954 607.779 288.824 607.779 241.865C607.779 194.906 616.378 156.838 646.471 156.838C681.819 158.271 685.163 194.906 685.163 241.865Z" fill="#4A7856"/>
<path opacity="0.3" fill-rule="evenodd" clip-rule="evenodd" d="M642.787 345.834C655.949 327.524 670.999 281.59 670.999 242.849C670.999 201.763 668.72 168.153 648.001 156.924C681.916 159.345 685.163 195.593 685.163 241.865C685.163 288.824 660.324 346.954 646.471 346.954C645.304 346.954 644.069 346.568 642.787 345.834Z" fill="#195742"/>
<path d="M625.863 44.0284C621.921 46.0133 632.435 57.2607 638.184 62.6363C649.273 66.9781 667.755 64.4352 672.067 61.3959C678.228 57.0541 687.468 42.1677 684.388 39.0664C681.308 35.9651 661.313 50.3362 660.978 48.9907C660.362 46.5096 659.161 32.6669 654.202 31.0029C650.506 29.7626 649.144 52.6463 648.042 52.0918C646.809 51.472 630.792 41.5473 625.863 44.0284Z" fill="#F41C21"/>
<path opacity="0.3" fill-rule="evenodd" clip-rule="evenodd" d="M656.716 64.8459C662.22 63.2559 666.605 60.9346 668.679 58.4772C671.861 54.7061 675.622 47.5963 678.907 39.7253C681.488 38.6663 683.556 38.2283 684.388 39.0664C687.469 42.1678 678.228 57.0541 672.067 61.396C669.807 62.9888 663.656 64.4453 656.716 64.8459Z" fill="#4A0B10"/>
<path d="M638.489 52.6449C636.255 53.8125 642.213 60.4286 645.471 63.5908C651.754 66.1447 662.228 64.6489 664.671 62.8611C668.162 60.3071 673.399 51.5504 671.653 49.7261C669.908 47.9018 658.577 56.3554 658.388 55.5639C658.039 54.1044 657.358 45.9617 654.548 44.9829C652.453 44.2533 651.681 57.7143 651.057 57.3881C650.359 57.0235 641.282 51.1855 638.489 52.6449Z" fill="#A51F28"/>
<path opacity="0.3" fill-rule="evenodd" clip-rule="evenodd" d="M659.7 64.4663C662.458 62.6882 664.78 60.1281 666.298 56.922C667.309 54.7874 667.873 52.5585 668.027 50.3449C669.729 49.5607 671.127 49.1759 671.654 49.7261C673.399 51.5504 668.163 60.3071 664.672 62.8611C663.819 63.485 661.989 64.0732 659.7 64.4663Z" fill="#4A0B10"/>
<path d="M565.651 143.334C565.685 142.905 566.315 142.905 566.349 143.334L566.73 148.114C566.749 148.358 567.007 148.508 567.229 148.402L571.559 146.342C571.948 146.157 572.263 146.702 571.908 146.946L567.959 149.666C567.757 149.805 567.757 150.103 567.959 150.242L571.908 152.962C572.263 153.207 571.948 153.752 571.559 153.566L567.229 151.506C567.007 151.401 566.749 151.55 566.73 151.795L566.349 156.574C566.315 157.004 565.685 157.004 565.651 156.574L565.27 151.795C565.251 151.55 564.993 151.401 564.771 151.506L560.441 153.566C560.052 153.752 559.737 153.207 560.092 152.962L564.041 150.242C564.243 150.103 564.243 149.805 564.041 149.666L560.092 146.946C559.737 146.702 560.052 146.157 560.441 146.342L564.771 148.402C564.993 148.508 565.251 148.358 565.27 148.114L565.651 143.334Z" fill="#FAF0E6"/>
<path d="M601.651 168.334C601.685 167.905 602.315 167.905 602.349 168.334L602.73 173.114C602.749 173.358 603.007 173.508 603.229 173.402L607.559 171.342C607.948 171.157 608.263 171.702 607.908 171.946L603.959 174.666C603.757 174.805 603.757 175.103 603.959 175.242L607.908 177.962C608.263 178.207 607.948 178.752 607.559 178.566L603.229 176.506C603.007 176.401 602.749 176.55 602.73 176.795L602.349 181.574C602.315 182.004 601.685 182.004 601.651 181.574L601.27 176.795C601.251 176.55 600.993 176.401 600.771 176.506L596.441 178.566C596.052 178.752 595.737 178.207 596.092 177.962L600.041 175.242C600.243 175.103 600.243 174.805 600.041 174.666L596.092 171.946C595.737 171.702 596.052 171.157 596.441 171.342L600.771 173.402C600.993 173.508 601.251 173.358 601.27 173.114L601.651 168.334Z" fill="#FAF0E6"/>
<path d="M595.651 143.334C595.685 142.905 596.315 142.905 596.349 143.334L596.73 148.114C596.749 148.358 597.007 148.508 597.229 148.402L601.559 146.342C601.948 146.157 602.263 146.702 601.908 146.946L597.959 149.666C597.757 149.805 597.757 150.103 597.959 150.242L601.908 152.962C602.263 153.207 601.948 153.752 601.559 153.566L597.229 151.506C597.007 151.401 596.749 151.55 596.73 151.795L596.349 156.574C596.315 157.004 595.685 157.004 595.651 156.574L595.27 151.795C595.251 151.55 594.993 151.401 594.771 151.506L590.441 153.566C590.052 153.752 589.737 153.207 590.092 152.962L594.041 150.242C594.243 150.103 594.243 149.805 594.041 149.666L590.092 146.946C589.737 146.702 590.052 146.157 590.441 146.342L594.771 148.402C594.993 148.508 595.251 148.358 595.27 148.114L595.651 143.334Z" fill="#FAF0E6"/>
<path d="M635.651 167.334C635.685 166.905 636.315 166.905 636.349 167.334L636.73 172.114C636.749 172.358 637.007 172.508 637.229 172.402L641.559 170.342C641.948 170.157 642.263 170.702 641.908 170.946L637.959 173.666C637.757 173.805 637.757 174.103 637.959 174.242L641.908 176.962C642.263 177.207 641.948 177.752 641.559 177.566L637.229 175.506C637.007 175.401 636.749 175.55 636.73 175.795L636.349 180.574C636.315 181.004 635.685 181.004 635.651 180.574L635.27 175.795C635.251 175.55 634.993 175.401 634.771 175.506L630.441 177.566C630.052 177.752 629.737 177.207 630.092 176.962L634.041 174.242C634.243 174.103 634.243 173.805 634.041 173.666L630.092 170.946C629.737 170.702 630.052 170.157 630.441 170.342L634.771 172.402C634.993 172.508 635.251 172.358 635.27 172.114L635.651 167.334Z" fill="#FAF0E6"/>
<path d="M665.651 139.334C665.685 138.905 666.315 138.905 666.349 139.334L666.73 144.114C666.749 144.358 667.007 144.508 667.229 144.402L671.559 142.342C671.948 142.157 672.263 142.702 671.908 142.946L667.959 145.666C667.757 145.805 667.757 146.103 667.959 146.242L671.908 148.962C672.263 149.207 671.948 149.752 671.559 149.566L667.229 147.506C667.007 147.401 666.749 147.55 666.73 147.795L666.349 152.574C666.315 153.004 665.685 153.004 665.651 152.574L665.27 147.795C665.251 147.55 664.993 147.401 664.771 147.506L660.441 149.566C660.052 149.752 659.737 149.207 660.092 148.962L664.041 146.242C664.243 146.103 664.243 145.805 664.041 145.666L660.092 142.946C659.737 142.702 660.052 142.157 660.441 142.342L664.771 144.402C664.993 144.508 665.251 144.358 665.27 144.114L665.651 139.334Z" fill="#FAF0E6"/>
<path d="M648.651 105.334C648.685 104.905 649.315 104.905 649.349 105.334L649.73 110.114C649.749 110.358 650.007 110.508 650.229 110.402L654.559 108.342C654.948 108.157 655.263 108.702 654.908 108.946L650.959 111.666C650.757 111.805 650.757 112.103 650.959 112.242L654.908 114.962C655.263 115.207 654.948 115.752 654.559 115.566L650.229 113.506C650.007 113.401 649.749 113.55 649.73 113.795L649.349 118.574C649.315 119.004 648.685 119.004 648.651 118.574L648.27 113.795C648.251 113.55 647.993 113.401 647.771 113.506L643.441 115.566C643.052 115.752 642.737 115.207 643.092 114.962L647.041 112.242C647.243 112.103 647.243 111.805 647.041 111.666L643.092 108.946C642.737 108.702 643.052 108.157 643.441 108.342L647.771 110.402C647.993 110.508 648.251 110.358 648.27 110.114L648.651 105.334Z" fill="#FAF0E6"/>
<path d="M665.651 190.334C665.685 189.905 666.315 189.905 666.349 190.334L666.73 195.114C666.749 195.358 667.007 195.508 667.229 195.402L671.559 193.342C671.948 193.157 672.263 193.702 671.908 193.946L667.959 196.666C667.757 196.805 667.757 197.103 667.959 197.242L671.908 199.962C672.263 200.207 671.948 200.752 671.559 200.566L667.229 198.506C667.007 198.401 666.749 198.55 666.73 198.795L666.349 203.574C666.315 204.004 665.685 204.004 665.651 203.574L665.27 198.795C665.251 198.55 664.993 198.401 664.771 198.506L660.441 200.566C660.052 200.752 659.737 200.207 660.092 199.962L664.041 197.242C664.243 197.103 664.243 196.805 664.041 196.666L660.092 193.946C659.737 193.702 660.052 193.157 660.441 193.342L664.771 195.402C664.993 195.508 665.251 195.358 665.27 195.114L665.651 190.334Z" fill="#FAF0E6"/>
<path d="M639.651 203.334C639.685 202.905 640.315 202.905 640.349 203.334L640.73 208.114C640.749 208.358 641.007 208.508 641.229 208.402L645.559 206.342C645.948 206.157 646.263 206.702 645.908 206.946L641.959 209.666C641.757 209.805 641.757 210.103 641.959 210.242L645.908 212.962C646.263 213.207 645.948 213.752 645.559 213.566L641.229 211.506C641.007 211.401 640.749 211.55 640.73 211.795L640.349 216.574C640.315 217.004 639.685 217.004 639.651 216.574L639.27 211.795C639.251 211.55 638.993 211.401 638.771 211.506L634.441 213.566C634.052 213.752 633.737 213.207 634.092 212.962L638.041 210.242C638.243 210.103 638.243 209.805 638.041 209.666L634.092 206.946C633.737 206.702 634.052 206.157 634.441 206.342L638.771 208.402C638.993 208.508 639.251 208.358 639.27 208.114L639.651 203.334Z" fill="#FAF0E6"/>
<path d="M620.651 228.334C620.685 227.905 621.315 227.905 621.349 228.334L621.73 233.114C621.749 233.358 622.007 233.508 622.229 233.402L626.559 231.342C626.948 231.157 627.263 231.702 626.908 231.946L622.959 234.666C622.757 234.805 622.757 235.103 622.959 235.242L626.908 237.962C627.263 238.207 626.948 238.752 626.559 238.566L622.229 236.506C622.007 236.401 621.749 236.55 621.73 236.795L621.349 241.574C621.315 242.004 620.685 242.004 620.651 241.574L620.27 236.795C620.251 236.55 619.993 236.401 619.771 236.506L615.441 238.566C615.052 238.752 614.737 238.207 615.092 237.962L619.041 235.242C619.243 235.103 619.243 234.805 619.041 234.666L615.092 231.946C614.737 231.702 615.052 231.157 615.441 231.342L619.771 233.402C619.993 233.508 620.251 233.358 620.27 233.114L620.651 228.334Z" fill="#FAF0E6"/>
<path d="M671.651 225.334C671.685 224.905 672.315 224.905 672.349 225.334L672.73 230.114C672.749 230.358 673.007 230.508 673.229 230.402L677.559 228.342C677.948 228.157 678.263 228.702 677.908 228.946L673.959 231.666C673.757 231.805 673.757 232.103 673.959 232.242L677.908 234.962C678.263 235.207 677.948 235.752 677.559 235.566L673.229 233.506C673.007 233.401 672.749 233.55 672.73 233.795L672.349 238.574C672.315 239.004 671.685 239.004 671.651 238.574L671.27 233.795C671.251 233.55 670.993 233.401 670.771 233.506L666.441 235.566C666.052 235.752 665.737 235.207 666.092 234.962L670.041 232.242C670.243 232.103 670.243 231.805 670.041 231.666L666.092 228.946C665.737 228.702 666.052 228.157 666.441 228.342L670.771 230.402C670.993 230.508 671.251 230.358 671.27 230.114L671.651 225.334Z" fill="#FAF0E6"/>
<path d="M590.651 250.334C590.685 249.905 591.315 249.905 591.349 250.334L591.73 255.114C591.749 255.358 592.007 255.508 592.229 255.402L596.559 253.342C596.948 253.157 597.263 253.702 596.908 253.946L592.959 256.666C592.757 256.805 592.757 257.103 592.959 257.242L596.908 259.962C597.263 260.207 596.948 260.752 596.559 260.566L592.229 258.506C592.007 258.401 591.749 258.55 591.73 258.795L591.349 263.574C591.315 264.004 590.685 264.004 590.651 263.574L590.27 258.795C590.251 258.55 589.993 258.401 589.771 258.506L585.441 260.566C585.052 260.752 584.737 260.207 585.092 259.962L589.041 257.242C589.243 257.103 589.243 256.805 589.041 256.666L585.092 253.946C584.737 253.702 585.052 253.157 585.441 253.342L589.771 255.402C589.993 255.508 590.251 255.358 590.27 255.114L590.651 250.334Z" fill="#FAF0E6"/>
<path d="M605.651 275.334C605.685 274.905 606.315 274.905 606.349 275.334L606.73 280.114C606.749 280.358 607.007 280.508 607.229 280.402L611.559 278.342C611.948 278.157 612.263 278.702 611.908 278.946L607.959 281.666C607.757 281.805 607.757 282.103 607.959 282.242L611.908 284.962C612.263 285.207 611.948 285.752 611.559 285.566L607.229 283.506C607.007 283.401 606.749 283.55 606.73 283.795L606.349 288.574C606.315 289.004 605.685 289.004 605.651 288.574L605.27 283.795C605.251 283.55 604.993 283.401 604.771 283.506L600.441 285.566C600.052 285.752 599.737 285.207 600.092 284.962L604.041 282.242C604.243 282.103 604.243 281.805 604.041 281.666L600.092 278.946C599.737 278.702 600.052 278.157 600.441 278.342L604.771 280.402C604.993 280.508 605.251 280.358 605.27 280.114L605.651 275.334Z" fill="#FAF0E6"/>
<path d="M635.651 304.334C635.685 303.905 636.315 303.905 636.349 304.334L636.73 309.114C636.749 309.358 637.007 309.508 637.229 309.402L641.559 307.342C641.948 307.157 642.263 307.702 641.908 307.946L637.959 310.666C637.757 310.805 637.757 311.103 637.959 311.242L641.908 313.962C642.263 314.207 641.948 314.752 641.559 314.566L637.229 312.506C637.007 312.401 636.749 312.55 636.73 312.795L636.349 317.574C636.315 318.004 635.685 318.004 635.651 317.574L635.27 312.795C635.251 312.55 634.993 312.401 634.771 312.506L630.441 314.566C630.052 314.752 629.737 314.207 630.092 313.962L634.041 311.242C634.243 311.103 634.243 310.805 634.041 310.666L630.092 307.946C629.737 307.702 630.052 307.157 630.441 307.342L634.771 309.402C634.993 309.508 635.251 309.358 635.27 309.114L635.651 304.334Z" fill="#FAF0E6"/>
<path d="M654.651 318.334C654.685 317.905 655.315 317.905 655.349 318.334L655.73 323.114C655.749 323.358 656.007 323.508 656.229 323.402L660.559 321.342C660.948 321.157 661.263 321.702 660.908 321.946L656.959 324.666C656.757 324.805 656.757 325.103 656.959 325.242L660.908 327.962C661.263 328.207 660.948 328.752 660.559 328.566L656.229 326.506C656.007 326.401 655.749 326.55 655.73 326.795L655.349 331.574C655.315 332.004 654.685 332.004 654.651 331.574L654.27 326.795C654.251 326.55 653.993 326.401 653.771 326.506L649.441 328.566C649.052 328.752 648.737 328.207 649.092 327.962L653.041 325.242C653.243 325.103 653.243 324.805 653.041 324.666L649.092 321.946C648.737 321.702 649.052 321.157 649.441 321.342L653.771 323.402C653.993 323.508 654.251 323.358 654.27 323.114L654.651 318.334Z" fill="#FAF0E6"/>
<path d="M662.651 275.334C662.685 274.905 663.315 274.905 663.349 275.334L663.73 280.114C663.749 280.358 664.007 280.508 664.229 280.402L668.559 278.342C668.948 278.157 669.263 278.702 668.908 278.946L664.959 281.666C664.757 281.805 664.757 282.103 664.959 282.242L668.908 284.962C669.263 285.207 668.948 285.752 668.559 285.566L664.229 283.506C664.007 283.401 663.749 283.55 663.73 283.795L663.349 288.574C663.315 289.004 662.685 289.004 662.651 288.574L662.27 283.795C662.251 283.55 661.993 283.401 661.771 283.506L657.441 285.566C657.052 285.752 656.737 285.207 657.092 284.962L661.041 282.242C661.243 282.103 661.243 281.805 661.041 281.666L657.092 278.946C656.737 278.702 657.052 278.157 657.441 278.342L661.771 280.402C661.993 280.508 662.251 280.358 662.27 280.114L662.651 275.334Z" fill="#FAF0E6"/>
<path d="M631.651 261.334C631.685 260.905 632.315 260.905 632.349 261.334L632.73 266.114C632.749 266.358 633.007 266.508 633.229 266.402L637.559 264.342C637.948 264.157 638.263 264.702 637.908 264.946L633.959 267.666C633.757 267.805 633.757 268.103 633.959 268.242L637.908 270.962C638.263 271.207 637.948 271.752 637.559 271.566L633.229 269.506C633.007 269.401 632.749 269.55 632.73 269.795L632.349 274.574C632.315 275.004 631.685 275.004 631.651 274.574L631.27 269.795C631.251 269.55 630.993 269.401 630.771 269.506L626.441 271.566C626.052 271.752 625.737 271.207 626.092 270.962L630.041 268.242C630.243 268.103 630.243 267.805 630.041 267.666L626.092 264.946C625.737 264.702 626.052 264.157 626.441 264.342L630.771 266.402C630.993 266.508 631.251 266.358 631.27 266.114L631.651 261.334Z" fill="#FAF0E6"/>
<path d="M653.651 238.334C653.685 237.905 654.315 237.905 654.349 238.334L654.73 243.114C654.749 243.358 655.007 243.508 655.229 243.402L659.559 241.342C659.948 241.157 660.263 241.702 659.908 241.946L655.959 244.666C655.757 244.805 655.757 245.103 655.959 245.242L659.908 247.962C660.263 248.207 659.948 248.752 659.559 248.566L655.229 246.506C655.007 246.401 654.749 246.55 654.73 246.795L654.349 251.574C654.315 252.004 653.685 252.004 653.651 251.574L653.27 246.795C653.251 246.55 652.993 246.401 652.771 246.506L648.441 248.566C648.052 248.752 647.737 248.207 648.092 247.962L652.041 245.242C652.243 245.103 652.243 244.805 652.041 244.666L648.092 241.946C647.737 241.702 648.052 241.157 648.441 241.342L652.771 243.402C652.993 243.508 653.251 243.358 653.27 243.114L653.651 238.334Z" fill="#FAF0E6"/>
<path d="M704.651 233.334C704.685 232.905 705.315 232.905 705.349 233.334L705.73 238.114C705.749 238.358 706.007 238.508 706.229 238.402L710.559 236.342C710.948 236.157 711.263 236.702 710.908 236.946L706.959 239.666C706.757 239.805 706.757 240.103 706.959 240.242L710.908 242.962C711.263 243.207 710.948 243.752 710.559 243.566L706.229 241.506C706.007 241.401 705.749 241.55 705.73 241.795L705.349 246.574C705.315 247.004 704.685 247.004 704.651 246.574L704.27 241.795C704.251 241.55 703.993 241.401 703.771 241.506L699.441 243.566C699.052 243.752 698.737 243.207 699.092 242.962L703.041 240.242C703.243 240.103 703.243 239.805 703.041 239.666L699.092 236.946C698.737 236.702 699.052 236.157 699.441 236.342L703.771 238.402C703.993 238.508 704.251 238.358 704.27 238.114L704.651 233.334Z" fill="#FAF0E6"/>
<path d="M704.651 201.334C704.685 200.905 705.315 200.905 705.349 201.334L705.73 206.114C705.749 206.358 706.007 206.508 706.229 206.402L710.559 204.342C710.948 204.157 711.263 204.702 710.908 204.946L706.959 207.666C706.757 207.805 706.757 208.103 706.959 208.242L710.908 210.962C711.263 211.207 710.948 211.752 710.559 211.566L706.229 209.506C706.007 209.401 705.749 209.55 705.73 209.795L705.349 214.574C705.315 215.004 704.685 215.004 704.651 214.574L704.27 209.795C704.251 209.55 703.993 209.401 703.771 209.506L699.441 211.566C699.052 211.752 698.737 211.207 699.092 210.962L703.041 208.242C703.243 208.103 703.243 207.805 703.041 207.666L699.092 204.946C698.737 204.702 699.052 204.157 699.441 204.342L703.771 206.402C703.993 206.508 704.251 206.358 704.27 206.114L704.651 201.334Z" fill="#FAF0E6"/>
<path d="M736.651 212.334C736.685 211.905 737.315 211.905 737.349 212.334L737.73 217.114C737.749 217.358 738.007 217.508 738.229 217.402L742.559 215.342C742.948 215.157 743.263 215.702 742.908 215.946L738.959 218.666C738.757 218.805 738.757 219.103 738.959 219.242L742.908 221.962C743.263 222.207 742.948 222.752 742.559 222.566L738.229 220.506C738.007 220.401 737.749 220.55 737.73 220.795L737.349 225.574C737.315 226.004 736.685 226.004 736.651 225.574L736.27 220.795C736.251 220.55 735.993 220.401 735.771 220.506L731.441 222.566C731.052 222.752 730.737 222.207 731.092 221.962L735.041 219.242C735.243 219.103 735.243 218.805 735.041 218.666L731.092 215.946C730.737 215.702 731.052 215.157 731.441 215.342L735.771 217.402C735.993 217.508 736.251 217.358 736.27 217.114L736.651 212.334Z" fill="#FAF0E6"/>
<path d="M753.651 181.334C753.685 180.905 754.315 180.905 754.349 181.334L754.73 186.114C754.749 186.358 755.007 186.508 755.229 186.402L759.559 184.342C759.948 184.157 760.263 184.702 759.908 184.946L755.959 187.666C755.757 187.805 755.757 188.103 755.959 188.242L759.908 190.962C760.263 191.207 759.948 191.752 759.559 191.566L755.229 189.506C755.007 189.401 754.749 189.55 754.73 189.795L754.349 194.574C754.315 195.004 753.685 195.004 753.651 194.574L753.27 189.795C753.251 189.55 752.993 189.401 752.771 189.506L748.441 191.566C748.052 191.752 747.737 191.207 748.092 190.962L752.041 188.242C752.243 188.103 752.243 187.805 752.041 187.666L748.092 184.946C747.737 184.702 748.052 184.157 748.441 184.342L752.771 186.402C752.993 186.508 753.251 186.358 753.27 186.114L753.651 181.334Z" fill="#FAF0E6"/>
<path d="M731.651 159.334C731.685 158.905 732.315 158.905 732.349 159.334L732.73 164.114C732.749 164.358 733.007 164.508 733.229 164.402L737.559 162.342C737.948 162.157 738.263 162.702 737.908 162.946L733.959 165.666C733.757 165.805 733.757 166.103 733.959 166.242L737.908 168.962C738.263 169.207 737.948 169.752 737.559 169.566L733.229 167.506C733.007 167.401 732.749 167.55 732.73 167.795L732.349 172.574C732.315 173.004 731.685 173.004 731.651 172.574L731.27 167.795C731.251 167.55 730.993 167.401 730.771 167.506L726.441 169.566C726.052 169.752 725.737 169.207 726.092 168.962L730.041 166.242C730.243 166.103 730.243 165.805 730.041 165.666L726.092 162.946C725.737 162.702 726.052 162.157 726.441 162.342L730.771 164.402C730.993 164.508 731.251 164.358 731.27 164.114L731.651 159.334Z" fill="#FAF0E6"/>
<path d="M726.651 185.334C726.685 184.905 727.315 184.905 727.349 185.334L727.73 190.114C727.749 190.358 728.007 190.508 728.229 190.402L732.559 188.342C732.948 188.157 733.263 188.702 732.908 188.946L728.959 191.666C728.757 191.805 728.757 192.103 728.959 192.242L732.908 194.962C733.263 195.207 732.948 195.752 732.559 195.566L728.229 193.506C728.007 193.401 727.749 193.55 727.73 193.795L727.349 198.574C727.315 199.004 726.685 199.004 726.651 198.574L726.27 193.795C726.251 193.55 725.993 193.401 725.771 193.506L721.441 195.566C721.052 195.752 720.737 195.207 721.092 194.962L725.041 192.242C725.243 192.103 725.243 191.805 725.041 191.666L721.092 188.946C720.737 188.702 721.052 188.157 721.441 188.342L725.771 190.402C725.993 190.508 726.251 190.358 726.27 190.114L726.651 185.334Z" fill="#FAF0E6"/>
<path d="M733.651 130.334C733.685 129.905 734.315 129.905 734.349 130.334L734.73 135.114C734.749 135.358 735.007 135.508 735.229 135.402L739.559 133.342C739.948 133.157 740.263 133.702 739.908 133.946L735.959 136.666C735.757 136.805 735.757 137.103 735.959 137.242L739.908 139.962C740.263 140.207 739.948 140.752 739.559 140.566L735.229 138.506C735.007 138.401 734.749 138.55 734.73 138.795L734.349 143.574C734.315 144.004 733.685 144.004 733.651 143.574L733.27 138.795C733.251 138.55 732.993 138.401 732.771 138.506L728.441 140.566C728.052 140.752 727.737 140.207 728.092 139.962L732.041 137.242C732.243 137.103 732.243 136.805 732.041 136.666L728.092 133.946C727.737 133.702 728.052 133.157 728.441 133.342L732.771 135.402C732.993 135.508 733.251 135.358 733.27 135.114L733.651 130.334Z" fill="#FAF0E6"/>
<path d="M720.651 113.334C720.685 112.905 721.315 112.905 721.349 113.334L721.73 118.114C721.749 118.358 722.007 118.508 722.229 118.402L726.559 116.342C726.948 116.157 727.263 116.702 726.908 116.946L722.959 119.666C722.757 119.805 722.757 120.103 722.959 120.242L726.908 122.962C727.263 123.207 726.948 123.752 726.559 123.566L722.229 121.506C722.007 121.401 721.749 121.55 721.73 121.795L721.349 126.574C721.315 127.004 720.685 127.004 720.651 126.574L720.27 121.795C720.251 121.55 719.993 121.401 719.771 121.506L715.441 123.566C715.052 123.752 714.737 123.207 715.092 122.962L719.041 120.242C719.243 120.103 719.243 119.805 719.041 119.666L715.092 116.946C714.737 116.702 715.052 116.157 715.441 116.342L719.771 118.402C719.993 118.508 720.251 118.358 720.27 118.114L720.651 113.334Z" fill="#FAF0E6"/>
<path d="M737.651 97.3341C737.685 96.9045 738.315 96.9045 738.349 97.3341L738.73 102.114C738.749 102.358 739.007 102.508 739.229 102.402L743.559 100.342C743.948 100.157 744.263 100.702 743.908 100.946L739.959 103.666C739.757 103.805 739.757 104.103 739.959 104.242L743.908 106.962C744.263 107.207 743.948 107.752 743.559 107.566L739.229 105.506C739.007 105.401 738.749 105.55 738.73 105.795L738.349 110.574C738.315 111.004 737.685 111.004 737.651 110.574L737.27 105.795C737.251 105.55 736.993 105.401 736.771 105.506L732.441 107.566C732.052 107.752 731.737 107.207 732.092 106.962L736.041 104.242C736.243 104.103 736.243 103.805 736.041 103.666L732.092 100.946C731.737 100.702 732.052 100.157 732.441 100.342L736.771 102.402C736.993 102.508 737.251 102.358 737.27 102.114L737.651 97.3341Z" fill="#FAF0E6"/>
<path d="M641.651 77.3341C641.685 76.9045 642.315 76.9045 642.349 77.3341L642.73 82.1139C642.749 82.3584 643.007 82.5076 643.229 82.4022L647.559 80.342C647.948 80.1569 648.263 80.7019 647.908 80.9463L643.959 83.666C643.757 83.8051 643.757 84.1034 643.959 84.2425L647.908 86.9621C648.263 87.2066 647.948 87.7516 647.559 87.5664L643.229 85.5063C643.007 85.4009 642.749 85.55 642.73 85.7945L642.349 90.5743C642.315 91.0039 641.685 91.0039 641.651 90.5743L641.27 85.7945C641.251 85.55 640.993 85.4009 640.771 85.5063L636.441 87.5664C636.052 87.7516 635.737 87.2066 636.092 86.9621L640.041 84.2425C640.243 84.1034 640.243 83.8051 640.041 83.666L636.092 80.9463C635.737 80.7019 636.052 80.1569 636.441 80.342L640.771 82.4022C640.993 82.5076 641.251 82.3584 641.27 82.1139L641.651 77.3341Z" fill="#FAF0E6"/>
<path d="M673.651 66.3341C673.685 65.9045 674.315 65.9045 674.349 66.3341L674.73 71.1139C674.749 71.3584 675.007 71.5076 675.229 71.4022L679.559 69.342C679.948 69.1569 680.263 69.7019 679.908 69.9463L675.959 72.666C675.757 72.8051 675.757 73.1034 675.959 73.2425L679.908 75.9621C680.263 76.2066 679.948 76.7516 679.559 76.5664L675.229 74.5063C675.007 74.4009 674.749 74.55 674.73 74.7945L674.349 79.5743C674.315 80.0039 673.685 80.0039 673.651 79.5743L673.27 74.7945C673.251 74.55 672.993 74.4009 672.771 74.5063L668.441 76.5664C668.052 76.7516 667.737 76.2066 668.092 75.9621L672.041 73.2425C672.243 73.1034 672.243 72.8051 672.041 72.666L668.092 69.9463C667.737 69.7019 668.052 69.1569 668.441 69.342L672.771 71.4022C672.993 71.5076 673.251 71.3584 673.27 71.1139L673.651 66.3341Z" fill="#FAF0E6"/>
<path d="M685.651 89.3341C685.685 88.9045 686.315 88.9045 686.349 89.3341L686.73 94.1139C686.749 94.3584 687.007 94.5076 687.229 94.4022L691.559 92.342C691.948 92.1569 692.263 92.7019 691.908 92.9463L687.959 95.666C687.757 95.8051 687.757 96.1034 687.959 96.2425L691.908 98.9621C692.263 99.2066 691.948 99.7516 691.559 99.5664L687.229 97.5063C687.007 97.4009 686.749 97.55 686.73 97.7945L686.349 102.574C686.315 103.004 685.685 103.004 685.651 102.574L685.27 97.7945C685.251 97.55 684.993 97.4009 684.771 97.5063L680.441 99.5664C680.052 99.7516 679.737 99.2066 680.092 98.9621L684.041 96.2425C684.243 96.1034 684.243 95.8051 684.041 95.666L680.092 92.9463C679.737 92.7019 680.052 92.1569 680.441 92.342L684.771 94.4022C684.993 94.5076 685.251 94.3584 685.27 94.1139L685.651 89.3341Z" fill="#FAF0E6"/>
<path d="M671.651 113.334C671.685 112.905 672.315 112.905 672.349 113.334L672.73 118.114C672.749 118.358 673.007 118.508 673.229 118.402L677.559 116.342C677.948 116.157 678.263 116.702 677.908 116.946L673.959 119.666C673.757 119.805 673.757 120.103 673.959 120.242L677.908 122.962C678.263 123.207 677.948 123.752 677.559 123.566L673.229 121.506C673.007 121.401 672.749 121.55 672.73 121.795L672.349 126.574C672.315 127.004 671.685 127.004 671.651 126.574L671.27 121.795C671.251 121.55 670.993 121.401 670.771 121.506L666.441 123.566C666.052 123.752 665.737 123.207 666.092 122.962L670.041 120.242C670.243 120.103 670.243 119.805 670.041 119.666L666.092 116.946C665.737 116.702 666.052 116.157 666.441 116.342L670.771 118.402C670.993 118.508 671.251 118.358 671.27 118.114L671.651 113.334Z" fill="#FAF0E6"/>
</svg>
